# xmcd
#
# Track frame offsets:
#	150
#	19412
#	37712
#	55187
#	69212
#	89612
#	113387
#	127562
#	146162
#	161012
#	174662
#	189437
#	208937
#	225737
#	245462
#	264212
#	284237
#	302612
#	321887
#
# Disc length: 4535 seconds
#
# Revision: 7
# Processed by: cddbd v1.5.2PL0 Copyright (c) Steve Scherf et al.
# Submitted via: EasyCDDAExtractor 10.0.3.1
#
DISCID=0611b513
DTITLE=גלי עטרי - רק אתמול
DYEAR=1991
DGENRE=òáøéú
TTITLE0=נפאל
TTITLE1=ממריאה ברוח
TTITLE2=הכל עומד במקום
TTITLE3=רק אתמול
TTITLE4=דואט פרידה
TTITLE5=בראשית
TTITLE6=אין לי ארץ אחרת
TTITLE7=נ.ב.
TTITLE8=שמש אדומה
TTITLE9=תני לו פרח
TTITLE10=בעקבותיו
TTITLE11=אסמרלדה
TTITLE12=נסיך החלומות
TTITLE13=פרח משוגע
TTITLE14=מקיץ אל חלום
TTITLE15=דרך ארוכה
TTITLE16=אמצע ספטמבר
TTITLE17=בוא נשכח ונסלח
TTITLE18=עוד יום
EXTD=YEAR: 1991
EXTT0=
EXTT1=
EXTT2=
EXTT3=
EXTT4=
EXTT5=
EXTT6=
EXTT7=
EXTT8=
EXTT9=
EXTT10=
EXTT11=
EXTT12=
EXTT13=
EXTT14=
EXTT15=
EXTT16=
EXTT17=
EXTT18=
PLAYORDER=
